<svg xmlns="http://www.w3.org/2000/svg" xmlns:xlink="http://www.w3.org/1999/xlink" width="74" height="56"><defs><path id="a" d="M109 82V36h48v46zm3-3h42l-20.604-40zm21.396-34.51l6.34 11.765h-4.755l-2.377 3.137-1.585-2.353-7.132 4.706z"/><path id="b" d="M83 81V26h57v55zm2-2h53l-26-51zm27-44l8 15h-6l-3 4-2-3-9 6z"/><path id="c" d="M133.396 39L154 79h-42zm-9.51 22.745l7.133-4.706 1.585 2.353 2.377-3.137h4.755l-6.34-11.765z"/><path id="e" d="M112 28l26 51H85zm-12 29l9-6 2 3 3-4h6l-8-15z"/><clipPath id="d"><use fill="#fff" xlink:href="#a"/></clipPath><clipPath id="f"><use fill="#fff" xlink:href="#b"/></clipPath></defs><g fill="#fff"><g transform="translate(-83 -26)"><use xlink:href="#c"/><use fill-opacity="0" stroke="#000" stroke-linecap="round" stroke-linejoin="round" stroke-miterlimit="50" stroke-width="6" clip-path="url(&quot;#d&quot;)" xlink:href="#c"/></g><g transform="translate(-83 -26)"><use xlink:href="#e"/><use fill-opacity="0" stroke="#000" stroke-linecap="round" stroke-linejoin="round" stroke-miterlimit="50" stroke-width="4" clip-path="url(&quot;#f&quot;)" xlink:href="#e"/></g></g></svg>