<svg xmlns="http://www.w3.org/2000/svg" viewBox="0 0 492.6 195.4"><path d="M490.5 56.8c-.9-8.5-1.7-18.1-3.4-26.4-1.5-7.3-6.1-14.3-11.7-19-10.8-9-22.7-8.8-36.7-9.2-4.9-.2-9.8-.6-14.7-.8C404.2.8 384.7.1 364.9 0h-48.5c-4 .1-7.9.3-11.9.3-10 0-19.6.4-29.6.8-4.9.2-9.9.1-14.7.5-5 .4-9.8.6-14.8.7-9.5.3-16.5.9-24.9 5.8-6.3 3.6-11.4 9.8-14.3 16.4-5.6 12.8-7.7 66.8-6.9 84.4.9 17 1.5 38.9 5 55.5 3.5 16.4 17 26.6 33.7 27.8 31.3 2.3 57.8 2.2 88.8 3.1h33.8c3.9-.1 7.8-.3 11.7-.3 5.2-.1 10.3.1 15.5 0 14.6-.3 29.3-1 43.9-1.7 5-.2 9.9-.2 14.9-.6 9.8-.8 16.1-.5 24.8-5.9 15.9-10 17-24.7 18.6-42.5.9-9.6 1.7-18.9 2.2-28.5 1-19.1.4-40.1-1.7-59zM285.1 49l-20.8.2v109l-18.1.3c-.8-2.8-.3-47.7-.3-54.7V49.2L226 49c-.2-.7-.2-.3-.2-1.1V31.7l59.3.2V49zM337 158.2h-16.8v-10c-1 .3-4 4.4-5.2 5.1l-3.9 2.9c-.5.5-5.2 2.7-6 2.8-3.4.7-4 1.1-7.5.5-4.9-.9-7.8-4-8.5-9-1.2-9.1-.9-7.1-.9-16.5V64.4h16.5v71.5c0 .9.1 1.6.1 2.4.2 3.2.5 7.9 6.9 5.9 1.9-.6 8.2-5.8 8.5-8V64.3H337v93.9zm65-23.9l-.7 10.6c-.7 4.1-1 5.1-2.9 8.8-4 7.7-15.2 8-23.3 1.4l-6.1-5.5v8.7l-16.8.3c.8-2.8.3-55.8.3-63.4 0-4.1-.2-61.1 0-63.4H369v41.4c1.8-.6 5.4-6.9 13.2-9.4 6.6-2.2 12.3.1 16.2 5.5 2.4 3.4 3.2 9.8 3.2 13.9 0 2 .3 3.4.3 5.5l.1 45.6zm34.7 8.9c2.5 2.1 13.1 3.9 13.2-9l.3-8.1H467c0 4.2.1 12.6-1.1 16.4-8.2 25.9-46.7 21.4-49.1-5-.9-9.5-.9-6.7-.9-16.9v-17.8c0-14.4-.4-31.4 15.2-37.9 13.4-5.5 30.3 0 34.2 15.4 2.5 9.8 1.7 23 1.5 33.5-1.8.9-29.6.3-34.1.3v16.5c.1 5.2.2 9.4 4 12.6zm-393 15.6c0-16.3-.3-35.2 0-51.5 0-2.1 4.6-15.2 5.4-18.2l17.1-57.8-19.6-.2c0 .1-.1.1-.1.2L44 39.8c-.4 2.3-3 11.1-3.2 12.3-.5 2.7-5.3 20.2-6.3 24.4l-.5 3.4c-.7-1-9-33-10.1-36.5-1-3.1-2.1-9.4-3.5-12.4H0c0 3.5 9.5 27 10.8 32.3 1.3 5.1 4 10.8 5.4 16L21 96.1c.9 2.9 1.5 5.6 2.1 8.6 1.5 7.1-.1 49.1.6 53.1.3 1.9 2.3 1.3 3.9 1.3 3.5.1 13.8.4 16.1-.3zm119.3-9.3l.2 9.5h17.4c.6-2 .2-82.4.2-94.3H163v3.2c0 23.2-.1 45.6.3 68.9-1.5 2.3-4.7 4.5-6.8 5.8-1.3.8-3.6 1.6-5.1 1.2-2-.5-2.2-2.2-2.6-3.9-.9-3-.4-64.1-.4-75.4h-17.8v.6c-.2 6.3 0 13.4 0 19.8v59.2c0 4.3 1.4 11.9 5.6 14.2 2.6 1.4 4.3 2 7.7 2 2.7 0 5.6-.8 8-2.1 7.4-3.7 8.7-7.2 11.1-8.7zm-79.2-14.3c-.2-1.1 0-38.3 0-40.4 0-4.9-.6-12.8 4.5-15.6 2.2-1.2 5.9-.8 7.9 1 1.9 1.7 2.7 4.9 3.1 7.3.3 1.7.1 37.7.1 40.4 0 4.8.6 13-4.6 15.5-6.3 2.8-10.1-2.7-11-8.2zm2.9-72.4c-25.2 4.6-21 32.3-21 53.7 0 9.9-.8 24.3 4.6 32.9 5.9 9.4 15.5 11.9 26 10.7 9.3-1.1 17.3-8.8 19.4-17.8 2.7-11 1.7-24.4 1.7-35.8 0-10 .9-24.2-4.6-32.9-5.6-9-16-12.7-26.1-10.8z"/><path d="M375.2 78.3c-8.2 2.4-6.1 5.8-6.1 14.6v41.4c0 1.7-.1 3.5 0 5.2.1 3.2 7 5.8 10.6 5.1 6.1-1.2 5.9-10.1 5.9-14.8v-20.7c0-6.7.3-14.1 0-20.7-.3-6.2-3.4-12.2-10.4-10.1zm57.8 22.1h17c.3-.8 1.8-15.7-2.6-20.2-1.9-1.9-3.1-2.2-5.9-2.2-8.3 0-8.7 8.2-8.7 14.6 0 1.9-.4 6.1.2 7.8z"/></svg>