<?xml version="1.0" encoding="utf-8"?>
<!-- Generator: Adobe Illustrator 22.0.1, SVG Export Plug-In . SVG Version: 6.00 Build 0)  -->
<svg version="1.1" id="Layer_1" xmlns="http://www.w3.org/2000/svg" xmlns:xlink="http://www.w3.org/1999/xlink" x="0px" y="0px"
	 viewBox="0 0 492.6 195.4" style="enable-background:new 0 0 492.6 195.4;" xml:space="preserve">
<g>
	<path d="M490.5,56.8c-0.9-8.5-1.7-18.1-3.4-26.4c-1.5-7.3-6.1-14.3-11.7-19c-10.8-9-22.7-8.8-36.7-9.2c-4.9-0.2-9.8-0.6-14.7-0.8
		c-19.8-0.6-39.3-1.3-59.1-1.4l-17.9,0h-30.6c-4,0.1-7.9,0.3-11.9,0.3c-10,0-19.6,0.4-29.6,0.8c-4.9,0.2-9.9,0.1-14.7,0.5
		c-5,0.4-9.8,0.6-14.8,0.7c-9.5,0.3-16.5,0.9-24.9,5.8c-6.3,3.6-11.4,9.8-14.3,16.4c-5.6,12.8-7.7,66.8-6.9,84.4
		c0.9,17,1.5,38.9,5,55.5c3.5,16.4,17,26.6,33.7,27.8c31.3,2.3,57.8,2.2,88.8,3.1c0.4,0,0.8,0,1.1,0h32.7c3.9-0.1,7.8-0.3,11.7-0.3
		c5.2-0.1,10.3,0.1,15.5,0c14.6-0.3,29.3-1,43.9-1.7c5-0.2,9.9-0.2,14.9-0.6c9.8-0.8,16.1-0.5,24.8-5.9c15.9-10,17-24.7,18.6-42.5
		c0.9-9.6,1.7-18.9,2.2-28.5C493.2,96.7,492.6,75.7,490.5,56.8z M285.1,49l-20.8,0.2v109l-18.1,0.3c-0.8-2.8-0.3-47.7-0.3-54.7V49.2
		L226,49c-0.2-0.7-0.2-0.3-0.2-1.1V31.7l59.3,0.2L285.1,49L285.1,49z M337,158.2h-16.8v-10c-1,0.3-4,4.4-5.2,5.1l-3.9,2.9
		c-0.5,0.5-5.2,2.7-6,2.8c-3.4,0.7-4,1.1-7.5,0.5c-4.9-0.9-7.8-4-8.5-9c-1.2-9.1-0.9-7.1-0.9-16.5V64.4h16.5l0,71.5
		c0,0.9,0.1,1.6,0.1,2.4c0.2,3.2,0.5,7.9,6.9,5.9c1.9-0.6,8.2-5.8,8.5-8l0-71.9H337V158.2z M402,134.3l-0.7,10.6
		c-0.7,4.1-1,5.1-2.9,8.8c-4,7.7-15.2,8-23.3,1.4l-6.1-5.5v8.7l-16.8,0.3c0.8-2.8,0.3-55.8,0.3-63.4c0-4.1-0.2-61.1,0-63.4H369v41.4
		c1.8-0.6,5.4-6.9,13.2-9.4c6.6-2.2,12.3,0.1,16.2,5.5c2.4,3.4,3.2,9.8,3.2,13.9c0,2,0.3,3.4,0.3,5.5L402,134.3L402,134.3z
		 M436.7,143.2c2.5,2.1,13.1,3.9,13.2-9l0.3-8.1H467c0,4.2,0.1,12.6-1.1,16.4c-8.2,25.9-46.7,21.4-49.1-5c-0.9-9.5-0.9-6.7-0.9-16.9
		v-17.8c0-14.4-0.4-31.4,15.2-37.9c13.4-5.5,30.3,0,34.2,15.4c2.5,9.8,1.7,23,1.5,33.5c-1.8,0.9-29.6,0.3-34.1,0.3v16.5
		C432.8,135.8,432.9,140,436.7,143.2z"/>
	<path d="M43.7,158.8c0-16.3-0.3-35.2,0-51.5c0-2.1,4.6-15.2,5.4-18.2l17.1-57.8l-19.6-0.2c0,0.1-0.1,0.1-0.1,0.2L44,39.8
		c-0.4,2.3-3,11.1-3.2,12.3c-0.5,2.7-5.3,20.2-6.3,24.4L34,79.9c-0.7-1-9-33-10.1-36.5c-1-3.1-2.1-9.4-3.5-12.4H0
		c0,3.5,9.5,27,10.8,32.3c1.3,5.1,4,10.8,5.4,16L21,96.1c0.9,2.9,1.5,5.6,2.1,8.6c1.5,7.1-0.1,49.1,0.6,53.1
		c0.3,1.9,2.3,1.3,3.9,1.3C31.1,159.2,41.4,159.5,43.7,158.8L43.7,158.8z"/>
	<path d="M163,149.5l0.2,9.5l17.4,0c0.6-2,0.2-82.4,0.2-94.3H163c0,0.6,0,1.6,0,3.2c0,23.2-0.1,45.6,0.3,68.9
		c-1.5,2.3-4.7,4.5-6.8,5.8c-1.3,0.8-3.6,1.6-5.1,1.2c-2-0.5-2.2-2.2-2.6-3.9c-0.9-3-0.4-64.1-0.4-75.4h-17.8c0,0.2,0,0.4,0,0.6
		c-0.2,6.3,0,13.4,0,19.8l0,59.2c0,4.3,1.4,11.9,5.6,14.2c2.6,1.4,4.3,2,7.7,2c2.7,0,5.6-0.8,8-2.1C159.3,154.5,160.6,151,163,149.5
		L163,149.5z"/>
	<path d="M83.8,135.2c-0.2-1.1,0-38.3,0-40.4c0-4.9-0.6-12.8,4.5-15.6c2.2-1.2,5.9-0.8,7.9,1c1.9,1.7,2.7,4.9,3.1,7.3
		c0.3,1.7,0.1,37.7,0.1,40.4c0,4.8,0.6,13-4.6,15.5C88.5,146.2,84.7,140.7,83.8,135.2L83.8,135.2z M86.7,62.8
		c-25.2,4.6-21,32.3-21,53.7c0,9.9-0.8,24.3,4.6,32.9c5.9,9.4,15.5,11.9,26,10.7c9.3-1.1,17.3-8.8,19.4-17.8
		c2.7-11,1.7-24.4,1.7-35.8c0-10,0.9-24.2-4.6-32.9C107.2,64.6,96.8,60.9,86.7,62.8z"/>
	<path d="M375.2,78.3c-8.2,2.4-6.1,5.8-6.1,14.6v41.4c0,1.7-0.1,3.5,0,5.2c0.1,3.2,7,5.8,10.6,5.1c6.1-1.2,5.9-10.1,5.9-14.8
		c0-6.9,0-13.8,0-20.7c0-6.7,0.3-14.1,0-20.7C385.3,82.2,382.2,76.2,375.2,78.3L375.2,78.3z"/>
	<path d="M433,100.4h17c0.3-0.8,1.8-15.7-2.6-20.2c-1.9-1.9-3.1-2.2-5.9-2.2c-8.3,0-8.7,8.2-8.7,14.6
		C432.8,94.5,432.4,98.7,433,100.4z"/>
</g>
</svg>
